STARTFONT 2.1
FONT -misc-Spleentt-medium-r-normal--8-80-72-72-C-50-ISO10646-1
SIZE 8 72 72
FONTBOUNDINGBOX 5 8 0 -1
COMMENT "Generated by fontforge, http://fontforge.sourceforge.net"
COMMENT "/*"
COMMENT "* Spleentt 5x8 1.9.2"
COMMENT "* Copyright (c) 2018-2022, Frederic Cambus"
COMMENT "* Copyright (c) 2023, Tommy Thorn"
COMMENT "* https://www.cambus.net/"
COMMENT "*"
COMMENT "* Created:      2018-08-08"
COMMENT "* Last Updated: 2023-02-11"
COMMENT "*"
COMMENT "* Spleentt is released under the BSD 2-Clause license."
COMMENT "* See LICENSE file for details."
COMMENT "*"
COMMENT "* SPDX-License-Identifier: BSD-2-Clause"
COMMENT "*/"
STARTPROPERTIES 20
FAMILY_NAME "Spleentt"
WEIGHT_NAME "Medium"
FONT_VERSION "1.9.2"
FOUNDRY "misc"
SLANT "R"
SETWIDTH_NAME "Normal"
PIXEL_SIZE 8
POINT_SIZE 80
RESOLUTION_X 72
RESOLUTION_Y 72
SPACING "C"
AVERAGE_WIDTH 50
CHARSET_REGISTRY "ISO10646"
CHARSET_ENCODING "1"
MIN_SPACE 5
FONT_DESCENT 1
FONT_ASCENT 7
COPYRIGHT "Copyright (c) 2018-2022, Frederic Cambus, 2023-2024 Tommy Thorn"
DEFAULT_CHAR 32
_GBDFED_INFO "Edited with Emacs 28"
ENDPROPERTIES
CHARS 472
STARTCHAR SPACE
ENCODING 32
SWIDTH 625 0
DWIDTH 5 0
BBX 5 8 0 0
BITMAP
00
00
00
00
00
00
00
00
ENDCHAR
STARTCHAR EXCLAMATION
ENCODING 33
SWIDTH 625 0
DWIDTH 5 0
BBX 5 8 0 0
BITMAP
20
20
20
20
20
00
20
00
ENDCHAR
STARTCHAR QUOTATION
ENCODING 34
SWIDTH 625 0
DWIDTH 5 0
BBX 5 8 0 0
BITMAP
50
50
00
00
00
00
00
00
ENDCHAR
STARTCHAR NUMBER
ENCODING 35
SWIDTH 625 0
DWIDTH 5 0
BBX 5 8 0 0
BITMAP
00
50
F8
50
50
F8
50
00
ENDCHAR
STARTCHAR DOLLAR
ENCODING 36
SWIDTH 625 0
DWIDTH 5 0
BBX 5 8 0 0
BITMAP
20
70
80
60
10
E0
40
00
ENDCHAR
STARTCHAR PERCENT
ENCODING 37
SWIDTH 625 0
DWIDTH 5 0
BBX 5 8 0 0
BITMAP
00
C0
D0
20
40
B0
30
00
ENDCHAR
STARTCHAR AMPERSAND
ENCODING 38
SWIDTH 625 0
DWIDTH 5 0
BBX 5 8 0 0
BITMAP
00
40
A0
40
A0
A0
50
00
ENDCHAR
STARTCHAR APOSTROPHE
ENCODING 39
SWIDTH 625 0
DWIDTH 5 0
BBX 5 8 0 0
BITMAP
20
20
00
00
00
00
00
00
ENDCHAR
STARTCHAR LEFT
ENCODING 40
SWIDTH 625 0
DWIDTH 5 0
BBX 5 8 0 0
BITMAP
20
40
80
80
80
40
20
00
ENDCHAR
STARTCHAR RIGHT
ENCODING 41
SWIDTH 625 0
DWIDTH 5 0
BBX 5 8 0 0
BITMAP
40
20
10
10
10
20
40
00
ENDCHAR
STARTCHAR ASTERISK
ENCODING 42
SWIDTH 625 0
DWIDTH 5 0
BBX 5 8 0 0
BITMAP
00
00
90
60
F0
60
90
00
ENDCHAR
STARTCHAR PLUS
ENCODING 43
SWIDTH 625 0
DWIDTH 5 0
BBX 5 8 0 0
BITMAP
00
00
20
20
F8
20
20
00
ENDCHAR
STARTCHAR COMMA
ENCODING 44
SWIDTH 625 0
DWIDTH 5 0
BBX 5 8 0 0
BITMAP
00
00
00
00
00
00
20
40
ENDCHAR
STARTCHAR HYPHEN-MINUS
ENCODING 45
SWIDTH 625 0
DWIDTH 5 0
BBX 5 8 0 0
BITMAP
00
00
00
00
F0
00
00
00
ENDCHAR
STARTCHAR FULL
ENCODING 46
SWIDTH 625 0
DWIDTH 5 0
BBX 5 8 0 0
BITMAP
00
00
00
00
00
00
20
00
ENDCHAR
STARTCHAR SOLIDUS
ENCODING 47
SWIDTH 625 0
DWIDTH 5 0
BBX 5 8 0 0
BITMAP
00
10
10
20
20
40
40
00
ENDCHAR
STARTCHAR DIGIT
ENCODING 48
SWIDTH 625 0
DWIDTH 5 0
BBX 5 8 0 0
BITMAP
00
60
90
B0
D0
90
60
00
ENDCHAR
STARTCHAR DIGIT
ENCODING 49
SWIDTH 625 0
DWIDTH 5 0
BBX 5 8 0 0
BITMAP
00
20
60
20
20
20
70
00
ENDCHAR
STARTCHAR DIGIT
ENCODING 50
SWIDTH 625 0
DWIDTH 5 0
BBX 5 8 0 0
BITMAP
00
60
90
10
60
80
F0
00
ENDCHAR
STARTCHAR DIGIT
ENCODING 51
SWIDTH 625 0
DWIDTH 5 0
BBX 5 8 0 0
BITMAP
00
60
90
20
10
90
60
00
ENDCHAR
STARTCHAR DIGIT
ENCODING 52
SWIDTH 625 0
DWIDTH 5 0
BBX 5 8 0 0
BITMAP
00
80
A0
A0
F0
20
20
00
ENDCHAR
STARTCHAR DIGIT
ENCODING 53
SWIDTH 625 0
DWIDTH 5 0
BBX 5 8 0 0
BITMAP
00
F0
80
E0
10
10
E0
00
ENDCHAR
STARTCHAR DIGIT
ENCODING 54
SWIDTH 625 0
DWIDTH 5 0
BBX 5 8 0 0
BITMAP
00
60
80
E0
90
90
60
00
ENDCHAR
STARTCHAR DIGIT
ENCODING 55
SWIDTH 625 0
DWIDTH 5 0
BBX 5 8 0 0
BITMAP
00
F0
10
20
20
40
40
00
ENDCHAR
STARTCHAR DIGIT
ENCODING 56
SWIDTH 625 0
DWIDTH 5 0
BBX 5 8 0 0
BITMAP
00
60
90
60
90
90
60
00
ENDCHAR
STARTCHAR DIGIT
ENCODING 57
SWIDTH 625 0
DWIDTH 5 0
BBX 5 8 0 0
BITMAP
00
60
90
90
70
10
60
00
ENDCHAR
STARTCHAR COLON
ENCODING 58
SWIDTH 625 0
DWIDTH 5 0
BBX 5 8 0 0
BITMAP
00
00
00
20
00
00
20
00
ENDCHAR
STARTCHAR SEMICOLON
ENCODING 59
SWIDTH 625 0
DWIDTH 5 0
BBX 5 8 0 0
BITMAP
00
00
00
20
00
00
20
40
ENDCHAR
STARTCHAR LESS-THAN
ENCODING 60
SWIDTH 625 0
DWIDTH 5 0
BBX 5 8 0 0
BITMAP
00
00
20
40
80
40
20
00
ENDCHAR
STARTCHAR EQUALS
ENCODING 61
SWIDTH 625 0
DWIDTH 5 0
BBX 5 8 0 0
BITMAP
00
00
00
F0
00
F0
00
00
ENDCHAR
STARTCHAR GREATER-THAN
ENCODING 62
SWIDTH 625 0
DWIDTH 5 0
BBX 5 8 0 0
BITMAP
00
00
40
20
10
20
40
00
ENDCHAR
STARTCHAR QUESTION
ENCODING 63
SWIDTH 625 0
DWIDTH 5 0
BBX 5 8 0 0
BITMAP
00
60
90
20
40
00
40
00
ENDCHAR
STARTCHAR COMMERCIAL
ENCODING 64
SWIDTH 625 0
DWIDTH 5 0
BBX 5 8 0 0
BITMAP
00
60
90
B0
B0
80
70
00
ENDCHAR
STARTCHAR LATIN
ENCODING 65
SWIDTH 625 0
DWIDTH 5 0
BBX 5 8 0 0
BITMAP
00
60
90
90
F0
90
90
00
ENDCHAR
STARTCHAR LATIN
ENCODING 66
SWIDTH 625 0
DWIDTH 5 0
BBX 5 8 0 0
BITMAP
00
E0
90
E0
90
90
E0
00
ENDCHAR
STARTCHAR LATIN
ENCODING 67
SWIDTH 625 0
DWIDTH 5 0
BBX 5 8 0 0
BITMAP
00
70
80
80
80
80
70
00
ENDCHAR
STARTCHAR LATIN
ENCODING 68
SWIDTH 625 0
DWIDTH 5 0
BBX 5 8 0 0
BITMAP
00
E0
90
90
90
90
E0
00
ENDCHAR
STARTCHAR LATIN
ENCODING 69
SWIDTH 625 0
DWIDTH 5 0
BBX 5 8 0 0
BITMAP
00
F0
80
E0
80
80
F0
00
ENDCHAR
STARTCHAR LATIN
ENCODING 70
SWIDTH 625 0
DWIDTH 5 0
BBX 5 8 0 0
BITMAP
00
F0
80
E0
80
80
80
00
ENDCHAR
STARTCHAR LATIN
ENCODING 71
SWIDTH 625 0
DWIDTH 5 0
BBX 5 8 0 0
BITMAP
00
70
80
B0
90
90
70
00
ENDCHAR
STARTCHAR LATIN
ENCODING 72
SWIDTH 625 0
DWIDTH 5 0
BBX 5 8 0 0
BITMAP
00
90
90
F0
90
90
90
00
ENDCHAR
STARTCHAR LATIN
ENCODING 73
SWIDTH 625 0
DWIDTH 5 0
BBX 5 8 0 0
BITMAP
00
70
20
20
20
20
70
00
ENDCHAR
STARTCHAR LATIN
ENCODING 74
SWIDTH 625 0
DWIDTH 5 0
BBX 5 8 0 0
BITMAP
00
70
20
20
20
20
C0
00
ENDCHAR
STARTCHAR LATIN
ENCODING 75
SWIDTH 625 0
DWIDTH 5 0
BBX 5 8 0 0
BITMAP
00
90
A0
C0
A0
90
90
00
ENDCHAR
STARTCHAR LATIN
ENCODING 76
SWIDTH 625 0
DWIDTH 5 0
BBX 5 8 0 0
BITMAP
00
80
80
80
80
80
F0
00
ENDCHAR
STARTCHAR LATIN
ENCODING 77
SWIDTH 625 0
DWIDTH 5 0
BBX 5 8 0 0
BITMAP
00
90
F0
F0
90
90
90
00
ENDCHAR
STARTCHAR LATIN
ENCODING 78
SWIDTH 625 0
DWIDTH 5 0
BBX 5 8 0 0
BITMAP
00
90
D0
D0
B0
B0
90
00
ENDCHAR
STARTCHAR LATIN
ENCODING 79
SWIDTH 625 0
DWIDTH 5 0
BBX 5 8 0 0
BITMAP
00
60
90
90
90
90
60
00
ENDCHAR
STARTCHAR LATIN
ENCODING 80
SWIDTH 625 0
DWIDTH 5 0
BBX 5 8 0 0
BITMAP
00
E0
90
90
E0
80
80
00
ENDCHAR
STARTCHAR LATIN
ENCODING 81
SWIDTH 625 0
DWIDTH 5 0
BBX 5 8 0 0
BITMAP
00
60
90
90
90
90
60
30
ENDCHAR
STARTCHAR LATIN
ENCODING 82
SWIDTH 625 0
DWIDTH 5 0
BBX 5 8 0 0
BITMAP
00
E0
90
90
E0
90
90
00
ENDCHAR
STARTCHAR LATIN
ENCODING 83
SWIDTH 625 0
DWIDTH 5 0
BBX 5 8 0 0
BITMAP
00
70
80
60
10
10
E0
00
ENDCHAR
STARTCHAR LATIN
ENCODING 84
SWIDTH 625 0
DWIDTH 5 0
BBX 5 8 0 0
BITMAP
00
70
20
20
20
20
20
00
ENDCHAR
STARTCHAR LATIN
ENCODING 85
SWIDTH 625 0
DWIDTH 5 0
BBX 5 8 0 0
BITMAP
00
90
90
90
90
90
60
00
ENDCHAR
STARTCHAR LATIN
ENCODING 86
SWIDTH 625 0
DWIDTH 5 0
BBX 5 8 0 0
BITMAP
00
90
90
90
90
60
60
00
ENDCHAR
STARTCHAR LATIN
ENCODING 87
SWIDTH 625 0
DWIDTH 5 0
BBX 5 8 0 0
BITMAP
00
90
90
90
F0
F0
90
00
ENDCHAR
STARTCHAR LATIN
ENCODING 88
SWIDTH 625 0
DWIDTH 5 0
BBX 5 8 0 0
BITMAP
00
90
90
60
60
90
90
00
ENDCHAR
STARTCHAR LATIN
ENCODING 89
SWIDTH 625 0
DWIDTH 5 0
BBX 5 8 0 0
BITMAP
00
50
50
50
20
20
20
00
ENDCHAR
STARTCHAR LATIN
ENCODING 90
SWIDTH 625 0
DWIDTH 5 0
BBX 5 8 0 0
BITMAP
00
F0
10
20
40
80
F0
00
ENDCHAR
STARTCHAR LEFT
ENCODING 91
SWIDTH 625 0
DWIDTH 5 0
BBX 5 8 0 0
BITMAP
60
40
40
40
40
40
60
00
ENDCHAR
STARTCHAR REVERSE
ENCODING 92
SWIDTH 625 0
DWIDTH 5 0
BBX 5 8 0 0
BITMAP
00
40
40
20
20
10
10
00
ENDCHAR
STARTCHAR RIGHT
ENCODING 93
SWIDTH 625 0
DWIDTH 5 0
BBX 5 8 0 0
BITMAP
60
20
20
20
20
20
60
00
ENDCHAR
STARTCHAR CIRCUMFLEX
ENCODING 94
SWIDTH 625 0
DWIDTH 5 0
BBX 5 8 0 0
BITMAP
00
20
50
00
00
00
00
00
ENDCHAR
STARTCHAR LOW
ENCODING 95
SWIDTH 625 0
DWIDTH 5 0
BBX 5 8 0 0
BITMAP
00
00
00
00
00
00
00
F0
ENDCHAR
STARTCHAR GRAVE
ENCODING 96
SWIDTH 625 0
DWIDTH 5 0
BBX 5 8 0 0
BITMAP
40
20
00
00
00
00
00
00
ENDCHAR
STARTCHAR LATIN
ENCODING 97
SWIDTH 625 0
DWIDTH 5 0
BBX 5 8 0 0
BITMAP
00
00
60
10
70
90
70
00
ENDCHAR
STARTCHAR LATIN
ENCODING 98
SWIDTH 625 0
DWIDTH 5 0
BBX 5 8 0 0
BITMAP
80
80
E0
90
90
90
E0
00
ENDCHAR
STARTCHAR LATIN
ENCODING 99
SWIDTH 625 0
DWIDTH 5 0
BBX 5 8 0 0
BITMAP
00
00
60
90
80
90
60
00
ENDCHAR
STARTCHAR LATIN
ENCODING 100
SWIDTH 625 0
DWIDTH 5 0
BBX 5 8 0 0
BITMAP
10
10
70
90
90
90
70
00
ENDCHAR
STARTCHAR LATIN
ENCODING 101
SWIDTH 625 0
DWIDTH 5 0
BBX 5 8 0 0
BITMAP
00
00
60
90
F0
80
70
00
ENDCHAR
STARTCHAR LATIN
ENCODING 102
SWIDTH 625 0
DWIDTH 5 0
BBX 5 8 0 0
BITMAP
30
40
40
E0
40
40
40
00
ENDCHAR
STARTCHAR LATIN
ENCODING 103
SWIDTH 625 0
DWIDTH 5 0
BBX 5 8 0 0
BITMAP
00
00
70
90
90
70
10
E0
ENDCHAR
STARTCHAR LATIN
ENCODING 104
SWIDTH 625 0
DWIDTH 5 0
BBX 5 8 0 0
BITMAP
80
80
E0
90
90
90
90
00
ENDCHAR
STARTCHAR LATIN
ENCODING 105
SWIDTH 625 0
DWIDTH 5 0
BBX 5 8 0 0
BITMAP
40
00
C0
40
40
40
30
00
ENDCHAR
STARTCHAR LATIN
ENCODING 106
SWIDTH 625 0
DWIDTH 5 0
BBX 5 8 0 0
BITMAP
20
00
60
20
20
20
20
C0
ENDCHAR
STARTCHAR LATIN
ENCODING 107
SWIDTH 625 0
DWIDTH 5 0
BBX 5 8 0 0
BITMAP
80
80
90
A0
C0
A0
90
00
ENDCHAR
STARTCHAR LATIN
ENCODING 108
SWIDTH 625 0
DWIDTH 5 0
BBX 5 8 0 0
BITMAP
60
20
20
20
20
20
30
00
ENDCHAR
STARTCHAR LATIN
ENCODING 109
SWIDTH 625 0
DWIDTH 5 0
BBX 5 8 0 0
BITMAP
00
00
90
F0
F0
90
90
00
ENDCHAR
STARTCHAR LATIN
ENCODING 110
SWIDTH 625 0
DWIDTH 5 0
BBX 5 8 0 0
BITMAP
00
00
A0
D0
90
90
90
00
ENDCHAR
STARTCHAR LATIN
ENCODING 111
SWIDTH 625 0
DWIDTH 5 0
BBX 5 8 0 0
BITMAP
00
00
60
90
90
90
60
00
ENDCHAR
STARTCHAR LATIN
ENCODING 112
SWIDTH 625 0
DWIDTH 5 0
BBX 5 8 0 0
BITMAP
00
00
E0
90
90
E0
80
80
ENDCHAR
STARTCHAR LATIN
ENCODING 113
SWIDTH 625 0
DWIDTH 5 0
BBX 5 8 0 0
BITMAP
00
00
70
90
90
70
10
10
ENDCHAR
STARTCHAR LATIN
ENCODING 114
SWIDTH 625 0
DWIDTH 5 0
BBX 5 8 0 0
BITMAP
00
00
B0
C0
80
80
80
00
ENDCHAR
STARTCHAR LATIN
ENCODING 115
SWIDTH 625 0
DWIDTH 5 0
BBX 5 8 0 0
BITMAP
00
00
70
80
60
10
E0
00
ENDCHAR
STARTCHAR LATIN
ENCODING 116
SWIDTH 625 0
DWIDTH 5 0
BBX 5 8 0 0
BITMAP
40
40
E0
40
40
40
30
00
ENDCHAR
STARTCHAR LATIN
ENCODING 117
SWIDTH 625 0
DWIDTH 5 0
BBX 5 8 0 0
BITMAP
00
00
90
90
90
90
60
00
ENDCHAR
STARTCHAR LATIN
ENCODING 118
SWIDTH 625 0
DWIDTH 5 0
BBX 5 8 0 0
BITMAP
00
00
90
90
90
60
60
00
ENDCHAR
STARTCHAR LATIN
ENCODING 119
SWIDTH 625 0
DWIDTH 5 0
BBX 5 8 0 0
BITMAP
00
00
90
90
F0
F0
90
00
ENDCHAR
STARTCHAR LATIN
ENCODING 120
SWIDTH 625 0
DWIDTH 5 0
BBX 5 8 0 0
BITMAP
00
00
90
60
60
90
90
00
ENDCHAR
STARTCHAR LATIN
ENCODING 121
SWIDTH 625 0
DWIDTH 5 0
BBX 5 8 0 0
BITMAP
00
00
90
90
90
70
10
E0
ENDCHAR
STARTCHAR LATIN
ENCODING 122
SWIDTH 625 0
DWIDTH 5 0
BBX 5 8 0 0
BITMAP
00
00
F0
10
60
80
F0
00
ENDCHAR
STARTCHAR LEFT
ENCODING 123
SWIDTH 625 0
DWIDTH 5 0
BBX 5 8 0 0
BITMAP
20
40
40
80
40
40
20
00
ENDCHAR
STARTCHAR VERTICAL
ENCODING 124
SWIDTH 625 0
DWIDTH 5 0
BBX 5 8 0 0
BITMAP
20
20
20
20
20
20
20
00
ENDCHAR
STARTCHAR RIGHT
ENCODING 125
SWIDTH 625 0
DWIDTH 5 0
BBX 5 8 0 0
BITMAP
40
20
20
10
20
20
40
00
ENDCHAR
STARTCHAR TILDE
ENCODING 126
SWIDTH 625 0
DWIDTH 5 0
BBX 5 8 0 0
BITMAP
00
00
00
50
A0
00
00
00
ENDCHAR
STARTCHAR NO-BREAK
ENCODING 160
SWIDTH 625 0
DWIDTH 5 0
BBX 5 8 0 0
BITMAP
00
00
00
00
00
00
00
00
ENDCHAR
STARTCHAR INVERTED
ENCODING 161
SWIDTH 625 0
DWIDTH 5 0
BBX 5 8 0 0
BITMAP
00
00
00
00
00
00
00
00
ENDCHAR
STARTCHAR CENT
ENCODING 162
SWIDTH 625 0
DWIDTH 5 0
BBX 5 8 0 0
BITMAP
00
00
00
00
00
00
00
00
ENDCHAR
STARTCHAR POUND
ENCODING 163
SWIDTH 625 0
DWIDTH 5 0
BBX 5 8 0 0
BITMAP
00
00
00
00
00
00
00
00
ENDCHAR
STARTCHAR CURRENCY
ENCODING 164
SWIDTH 625 0
DWIDTH 5 0
BBX 5 8 0 0
BITMAP
00
00
00
00
00
00
00
00
ENDCHAR
STARTCHAR YEN
ENCODING 165
SWIDTH 625 0
DWIDTH 5 0
BBX 5 8 0 0
BITMAP
00
00
00
00
00
00
00
00
ENDCHAR
STARTCHAR BROKEN
ENCODING 166
SWIDTH 625 0
DWIDTH 5 0
BBX 5 8 0 0
BITMAP
00
00
00
00
00
00
00
00
ENDCHAR
STARTCHAR SECTION
ENCODING 167
SWIDTH 625 0
DWIDTH 5 0
BBX 5 8 0 0
BITMAP
00
00
00
00
00
00
00
00
ENDCHAR
STARTCHAR DIAERESIS
ENCODING 168
SWIDTH 625 0
DWIDTH 5 0
BBX 5 8 0 0
BITMAP
00
00
00
00
00
00
00
00
ENDCHAR
STARTCHAR COPYRIGHT
ENCODING 169
SWIDTH 625 0
DWIDTH 5 0
BBX 5 8 0 0
BITMAP
00
00
00
00
00
00
00
00
ENDCHAR
STARTCHAR FEMININE
ENCODING 170
SWIDTH 625 0
DWIDTH 5 0
BBX 5 8 0 0
BITMAP
00
00
00
00
00
00
00
00
ENDCHAR
STARTCHAR LEFT-POINTING
ENCODING 171
SWIDTH 625 0
DWIDTH 5 0
BBX 5 8 0 0
BITMAP
00
00
00
00
00
00
00
00
ENDCHAR
STARTCHAR NOT
ENCODING 172
SWIDTH 625 0
DWIDTH 5 0
BBX 5 8 0 0
BITMAP
00
00
00
00
00
00
00
00
ENDCHAR
STARTCHAR SOFT
ENCODING 173
SWIDTH 625 0
DWIDTH 5 0
BBX 5 8 0 0
BITMAP
00
00
00
00
00
00
00
00
ENDCHAR
STARTCHAR REGISTERED
ENCODING 174
SWIDTH 625 0
DWIDTH 5 0
BBX 5 8 0 0
BITMAP
00
00
00
00
00
00
00
00
ENDCHAR
STARTCHAR MACRON
ENCODING 175
SWIDTH 625 0
DWIDTH 5 0
BBX 5 8 0 0
BITMAP
00
00
00
00
00
00
00
00
ENDCHAR
STARTCHAR DEGREE
ENCODING 176
SWIDTH 625 0
DWIDTH 5 0
BBX 5 8 0 0
BITMAP
00
00
00
00
00
00
00
00
ENDCHAR
STARTCHAR PLUS-MINUS
ENCODING 177
SWIDTH 625 0
DWIDTH 5 0
BBX 5 8 0 0
BITMAP
00
00
00
00
00
00
00
00
ENDCHAR
STARTCHAR SUPERSCRIPT
ENCODING 178
SWIDTH 625 0
DWIDTH 5 0
BBX 5 8 0 0
BITMAP
00
00
00
00
00
00
00
00
ENDCHAR
STARTCHAR SUPERSCRIPT
ENCODING 179
SWIDTH 625 0
DWIDTH 5 0
BBX 5 8 0 0
BITMAP
00
00
00
00
00
00
00
00
ENDCHAR
STARTCHAR ACUTE
ENCODING 180
SWIDTH 625 0
DWIDTH 5 0
BBX 5 8 0 0
BITMAP
00
00
00
00
00
00
00
00
ENDCHAR
STARTCHAR MICRO
ENCODING 181
SWIDTH 625 0
DWIDTH 5 0
BBX 5 8 0 0
BITMAP
00
00
00
00
00
00
00
00
ENDCHAR
STARTCHAR PILCROW
ENCODING 182
SWIDTH 625 0
DWIDTH 5 0
BBX 5 8 0 0
BITMAP
00
00
00
00
00
00
00
00
ENDCHAR
STARTCHAR MIDDLE
ENCODING 183
SWIDTH 625 0
DWIDTH 5 0
BBX 5 8 0 0
BITMAP
00
00
00
00
00
00
00
00
ENDCHAR
STARTCHAR CEDILLA
ENCODING 184
SWIDTH 625 0
DWIDTH 5 0
BBX 5 8 0 0
BITMAP
00
00
00
00
00
00
00
00
ENDCHAR
STARTCHAR SUPERSCRIPT
ENCODING 185
SWIDTH 625 0
DWIDTH 5 0
BBX 5 8 0 0
BITMAP
00
00
00
00
00
00
00
00
ENDCHAR
STARTCHAR MASCULINE
ENCODING 186
SWIDTH 625 0
DWIDTH 5 0
BBX 5 8 0 0
BITMAP
00
00
00
00
00
00
00
00
ENDCHAR
STARTCHAR RIGHT-POINTING
ENCODING 187
SWIDTH 625 0
DWIDTH 5 0
BBX 5 8 0 0
BITMAP
00
00
00
00
00
00
00
00
ENDCHAR
STARTCHAR VULGAR
ENCODING 188
SWIDTH 625 0
DWIDTH 5 0
BBX 5 8 0 0
BITMAP
00
00
00
00
00
00
00
00
ENDCHAR
STARTCHAR VULGAR
ENCODING 189
SWIDTH 625 0
DWIDTH 5 0
BBX 5 8 0 0
BITMAP
00
00
00
00
00
00
00
00
ENDCHAR
STARTCHAR VULGAR
ENCODING 190
SWIDTH 625 0
DWIDTH 5 0
BBX 5 8 0 0
BITMAP
00
00
00
00
00
00
00
00
ENDCHAR
STARTCHAR INVERTED
ENCODING 191
SWIDTH 625 0
DWIDTH 5 0
BBX 5 8 0 0
BITMAP
00
00
00
00
00
00
00
00
ENDCHAR
STARTCHAR LATIN
ENCODING 192
SWIDTH 625 0
DWIDTH 5 0
BBX 5 8 0 0
BITMAP
00
00
00
00
00
00
00
00
ENDCHAR
STARTCHAR LATIN
ENCODING 193
SWIDTH 625 0
DWIDTH 5 0
BBX 5 8 0 0
BITMAP
00
00
00
00
00
00
00
00
ENDCHAR
STARTCHAR LATIN
ENCODING 194
SWIDTH 625 0
DWIDTH 5 0
BBX 5 8 0 0
BITMAP
00
00
00
00
00
00
00
00
ENDCHAR
STARTCHAR LATIN
ENCODING 195
SWIDTH 625 0
DWIDTH 5 0
BBX 5 8 0 0
BITMAP
00
00
00
00
00
00
00
00
ENDCHAR
STARTCHAR LATIN
ENCODING 196
SWIDTH 625 0
DWIDTH 5 0
BBX 5 8 0 0
BITMAP
00
00
00
00
00
00
00
00
ENDCHAR
STARTCHAR LATIN
ENCODING 197
SWIDTH 625 0
DWIDTH 5 0
BBX 5 8 0 0
BITMAP
00
00
00
00
00
00
00
00
ENDCHAR
STARTCHAR LATIN
ENCODING 198
SWIDTH 625 0
DWIDTH 5 0
BBX 5 8 0 0
BITMAP
00
00
00
00
00
00
00
00
ENDCHAR
STARTCHAR LATIN
ENCODING 199
SWIDTH 625 0
DWIDTH 5 0
BBX 5 8 0 0
BITMAP
00
00
00
00
00
00
00
00
ENDCHAR
STARTCHAR LATIN
ENCODING 200
SWIDTH 625 0
DWIDTH 5 0
BBX 5 8 0 0
BITMAP
00
00
00
00
00
00
00
00
ENDCHAR
STARTCHAR LATIN
ENCODING 201
SWIDTH 625 0
DWIDTH 5 0
BBX 5 8 0 0
BITMAP
00
00
00
00
00
00
00
00
ENDCHAR
STARTCHAR LATIN
ENCODING 202
SWIDTH 625 0
DWIDTH 5 0
BBX 5 8 0 0
BITMAP
00
00
00
00
00
00
00
00
ENDCHAR
STARTCHAR LATIN
ENCODING 203
SWIDTH 625 0
DWIDTH 5 0
BBX 5 8 0 0
BITMAP
00
00
00
00
00
00
00
00
ENDCHAR
STARTCHAR LATIN
ENCODING 204
SWIDTH 625 0
DWIDTH 5 0
BBX 5 8 0 0
BITMAP
00
00
00
00
00
00
00
00
ENDCHAR
STARTCHAR LATIN
ENCODING 205
SWIDTH 625 0
DWIDTH 5 0
BBX 5 8 0 0
BITMAP
00
00
00
00
00
00
00
00
ENDCHAR
STARTCHAR LATIN
ENCODING 206
SWIDTH 625 0
DWIDTH 5 0
BBX 5 8 0 0
BITMAP
00
00
00
00
00
00
00
00
ENDCHAR
STARTCHAR LATIN
ENCODING 207
SWIDTH 625 0
DWIDTH 5 0
BBX 5 8 0 0
BITMAP
00
00
00
00
00
00
00
00
ENDCHAR
STARTCHAR LATIN
ENCODING 208
SWIDTH 625 0
DWIDTH 5 0
BBX 5 8 0 0
BITMAP
00
00
00
00
00
00
00
00
ENDCHAR
STARTCHAR LATIN
ENCODING 209
SWIDTH 625 0
DWIDTH 5 0
BBX 5 8 0 0
BITMAP
00
00
00
00
00
00
00
00
ENDCHAR
STARTCHAR LATIN
ENCODING 210
SWIDTH 625 0
DWIDTH 5 0
BBX 5 8 0 0
BITMAP
00
00
00
00
00
00
00
00
ENDCHAR
STARTCHAR LATIN
ENCODING 211
SWIDTH 625 0
DWIDTH 5 0
BBX 5 8 0 0
BITMAP
00
00
00
00
00
00
00
00
ENDCHAR
STARTCHAR LATIN
ENCODING 212
SWIDTH 625 0
DWIDTH 5 0
BBX 5 8 0 0
BITMAP
00
00
00
00
00
00
00
00
ENDCHAR
STARTCHAR LATIN
ENCODING 213
SWIDTH 625 0
DWIDTH 5 0
BBX 5 8 0 0
BITMAP
00
00
00
00
00
00
00
00
ENDCHAR
STARTCHAR LATIN
ENCODING 214
SWIDTH 625 0
DWIDTH 5 0
BBX 5 8 0 0
BITMAP
00
00
00
00
00
00
00
00
ENDCHAR
STARTCHAR MULTIPLICATION
ENCODING 215
SWIDTH 625 0
DWIDTH 5 0
BBX 5 8 0 0
BITMAP
00
00
00
00
00
00
00
00
ENDCHAR
STARTCHAR LATIN
ENCODING 216
SWIDTH 625 0
DWIDTH 5 0
BBX 5 8 0 0
BITMAP
00
00
00
00
00
00
00
00
ENDCHAR
STARTCHAR LATIN
ENCODING 217
SWIDTH 625 0
DWIDTH 5 0
BBX 5 8 0 0
BITMAP
00
00
00
00
00
00
00
00
ENDCHAR
STARTCHAR LATIN
ENCODING 218
SWIDTH 625 0
DWIDTH 5 0
BBX 5 8 0 0
BITMAP
00
00
00
00
00
00
00
00
ENDCHAR
STARTCHAR LATIN
ENCODING 219
SWIDTH 625 0
DWIDTH 5 0
BBX 5 8 0 0
BITMAP
00
00
00
00
00
00
00
00
ENDCHAR
STARTCHAR LATIN
ENCODING 220
SWIDTH 625 0
DWIDTH 5 0
BBX 5 8 0 0
BITMAP
00
00
00
00
00
00
00
00
ENDCHAR
STARTCHAR LATIN
ENCODING 221
SWIDTH 625 0
DWIDTH 5 0
BBX 5 8 0 0
BITMAP
00
00
00
00
00
00
00
00
ENDCHAR
STARTCHAR LATIN
ENCODING 222
SWIDTH 625 0
DWIDTH 5 0
BBX 5 8 0 0
BITMAP
00
00
00
00
00
00
00
00
ENDCHAR
STARTCHAR LATIN
ENCODING 223
SWIDTH 625 0
DWIDTH 5 0
BBX 5 8 0 0
BITMAP
00
00
00
00
00
00
00
00
ENDCHAR
STARTCHAR LATIN
ENCODING 224
SWIDTH 625 0
DWIDTH 5 0
BBX 5 8 0 0
BITMAP
00
00
00
00
00
00
00
00
ENDCHAR
STARTCHAR LATIN
ENCODING 225
SWIDTH 625 0
DWIDTH 5 0
BBX 5 8 0 0
BITMAP
00
00
00
00
00
00
00
00
ENDCHAR
STARTCHAR LATIN
ENCODING 226
SWIDTH 625 0
DWIDTH 5 0
BBX 5 8 0 0
BITMAP
00
00
00
00
00
00
00
00
ENDCHAR
STARTCHAR LATIN
ENCODING 227
SWIDTH 625 0
DWIDTH 5 0
BBX 5 8 0 0
BITMAP
00
00
00
00
00
00
00
00
ENDCHAR
STARTCHAR LATIN
ENCODING 228
SWIDTH 625 0
DWIDTH 5 0
BBX 5 8 0 0
BITMAP
00
00
00
00
00
00
00
00
ENDCHAR
STARTCHAR LATIN
ENCODING 229
SWIDTH 625 0
DWIDTH 5 0
BBX 5 8 0 0
BITMAP
00
00
00
00
00
00
00
00
ENDCHAR
STARTCHAR LATIN
ENCODING 230
SWIDTH 625 0
DWIDTH 5 0
BBX 5 8 0 0
BITMAP
00
00
00
00
00
00
00
00
ENDCHAR
STARTCHAR LATIN
ENCODING 231
SWIDTH 625 0
DWIDTH 5 0
BBX 5 8 0 0
BITMAP
00
00
00
00
00
00
00
00
ENDCHAR
STARTCHAR LATIN
ENCODING 232
SWIDTH 625 0
DWIDTH 5 0
BBX 5 8 0 0
BITMAP
00
00
00
00
00
00
00
00
ENDCHAR
STARTCHAR LATIN
ENCODING 233
SWIDTH 625 0
DWIDTH 5 0
BBX 5 8 0 0
BITMAP
00
00
00
00
00
00
00
00
ENDCHAR
STARTCHAR LATIN
ENCODING 234
SWIDTH 625 0
DWIDTH 5 0
BBX 5 8 0 0
BITMAP
00
00
00
00
00
00
00
00
ENDCHAR
STARTCHAR LATIN
ENCODING 235
SWIDTH 625 0
DWIDTH 5 0
BBX 5 8 0 0
BITMAP
00
00
00
00
00
00
00
00
ENDCHAR
STARTCHAR LATIN
ENCODING 236
SWIDTH 625 0
DWIDTH 5 0
BBX 5 8 0 0
BITMAP
00
00
00
00
00
00
00
00
ENDCHAR
STARTCHAR LATIN
ENCODING 237
SWIDTH 625 0
DWIDTH 5 0
BBX 5 8 0 0
BITMAP
00
00
00
00
00
00
00
00
ENDCHAR
STARTCHAR LATIN
ENCODING 238
SWIDTH 625 0
DWIDTH 5 0
BBX 5 8 0 0
BITMAP
00
00
00
00
00
00
00
00
ENDCHAR
STARTCHAR LATIN
ENCODING 239
SWIDTH 625 0
DWIDTH 5 0
BBX 5 8 0 0
BITMAP
00
00
00
00
00
00
00
00
ENDCHAR
STARTCHAR LATIN
ENCODING 240
SWIDTH 625 0
DWIDTH 5 0
BBX 5 8 0 0
BITMAP
00
00
00
00
00
00
00
00
ENDCHAR
STARTCHAR LATIN
ENCODING 241
SWIDTH 625 0
DWIDTH 5 0
BBX 5 8 0 0
BITMAP
00
00
00
00
00
00
00
00
ENDCHAR
STARTCHAR LATIN
ENCODING 242
SWIDTH 625 0
DWIDTH 5 0
BBX 5 8 0 0
BITMAP
00
00
00
00
00
00
00
00
ENDCHAR
STARTCHAR LATIN
ENCODING 243
SWIDTH 625 0
DWIDTH 5 0
BBX 5 8 0 0
BITMAP
00
00
00
00
00
00
00
00
ENDCHAR
STARTCHAR LATIN
ENCODING 244
SWIDTH 625 0
DWIDTH 5 0
BBX 5 8 0 0
BITMAP
00
00
00
00
00
00
00
00
ENDCHAR
STARTCHAR LATIN
ENCODING 245
SWIDTH 625 0
DWIDTH 5 0
BBX 5 8 0 0
BITMAP
00
00
00
00
00
00
00
00
ENDCHAR
STARTCHAR LATIN
ENCODING 246
SWIDTH 625 0
DWIDTH 5 0
BBX 5 8 0 0
BITMAP
00
00
00
00
00
00
00
00
ENDCHAR
STARTCHAR DIVISION
ENCODING 247
SWIDTH 625 0
DWIDTH 5 0
BBX 5 8 0 0
BITMAP
00
00
00
00
00
00
00
00
ENDCHAR
STARTCHAR LATIN
ENCODING 248
SWIDTH 625 0
DWIDTH 5 0
BBX 5 8 0 0
BITMAP
00
00
00
00
00
00
00
00
ENDCHAR
STARTCHAR LATIN
ENCODING 249
SWIDTH 625 0
DWIDTH 5 0
BBX 5 8 0 0
BITMAP
00
00
00
00
00
00
00
00
ENDCHAR
STARTCHAR LATIN
ENCODING 250
SWIDTH 625 0
DWIDTH 5 0
BBX 5 8 0 0
BITMAP
00
00
00
00
00
00
00
00
ENDCHAR
STARTCHAR LATIN
ENCODING 251
SWIDTH 625 0
DWIDTH 5 0
BBX 5 8 0 0
BITMAP
00
00
00
00
00
00
00
00
ENDCHAR
STARTCHAR LATIN
ENCODING 252
SWIDTH 625 0
DWIDTH 5 0
BBX 5 8 0 0
BITMAP
00
00
00
00
00
00
00
00
ENDCHAR
STARTCHAR LATIN
ENCODING 253
SWIDTH 625 0
DWIDTH 5 0
BBX 5 8 0 0
BITMAP
00
00
00
00
00
00
00
00
ENDCHAR
STARTCHAR LATIN
ENCODING 254
SWIDTH 625 0
DWIDTH 5 0
BBX 5 8 0 0
BITMAP
00
00
00
00
00
00
00
00
ENDCHAR
STARTCHAR LATIN
ENCODING 255
SWIDTH 625 0
DWIDTH 5 0
BBX 5 8 0 0
BITMAP
00
00
00
00
00
00
00
00
ENDCHAR
STARTCHAR control
ENCODING 8963
SWIDTH 625 0
DWIDTH 5 0
BBX 5 8 0 0
BITMAP
00
00
00
00
00
00
00
00
ENDCHAR
STARTCHAR BOX
ENCODING 9472
SWIDTH 625 0
DWIDTH 5 0
BBX 5 8 0 0
BITMAP
00
00
00
F8
00
00
00
00
ENDCHAR
STARTCHAR BOX
ENCODING 9474
SWIDTH 625 0
DWIDTH 5 0
BBX 5 8 0 0
BITMAP
20
20
20
20
20
20
20
20
ENDCHAR
STARTCHAR BOX
ENCODING 9484
SWIDTH 625 0
DWIDTH 5 0
BBX 5 8 0 0
BITMAP
00
00
00
38
20
20
20
20
ENDCHAR
STARTCHAR BOX
ENCODING 9488
SWIDTH 625 0
DWIDTH 5 0
BBX 5 8 0 0
BITMAP
00
00
00
E0
20
20
20
20
ENDCHAR
STARTCHAR BOX
ENCODING 9492
SWIDTH 625 0
DWIDTH 5 0
BBX 5 8 0 0
BITMAP
20
20
20
38
00
00
00
00
ENDCHAR
STARTCHAR BOX
ENCODING 9496
SWIDTH 625 0
DWIDTH 5 0
BBX 5 8 0 0
BITMAP
20
20
20
E0
00
00
00
00
ENDCHAR
STARTCHAR BOX
ENCODING 9500
SWIDTH 625 0
DWIDTH 5 0
BBX 5 8 0 0
BITMAP
20
20
20
38
20
20
20
20
ENDCHAR
STARTCHAR BOX
ENCODING 9508
SWIDTH 625 0
DWIDTH 5 0
BBX 5 8 0 0
BITMAP
20
20
20
E0
20
20
20
20
ENDCHAR
STARTCHAR BOX
ENCODING 9516
SWIDTH 625 0
DWIDTH 5 0
BBX 5 8 0 0
BITMAP
00
00
00
F8
20
20
20
20
ENDCHAR
STARTCHAR BOX
ENCODING 9524
SWIDTH 625 0
DWIDTH 5 0
BBX 5 8 0 0
BITMAP
20
20
20
F8
00
00
00
00
ENDCHAR
STARTCHAR BOX
ENCODING 9532
SWIDTH 625 0
DWIDTH 5 0
BBX 5 8 0 0
BITMAP
20
20
20
F8
20
20
20
20
ENDCHAR
STARTCHAR BLACK
ENCODING 9670
SWIDTH 625 0
DWIDTH 5 0
BBX 5 8 0 0
BITMAP
00
20
70
F8
70
20
00
00
ENDCHAR
STARTCHAR LOZENGE
ENCODING 9674
SWIDTH 625 0
DWIDTH 5 0
BBX 5 8 0 0
BITMAP
00
20
50
88
50
20
00
00
ENDCHAR
STARTCHAR BLACK
ENCODING 9698
SWIDTH 625 0
DWIDTH 5 0
BBX 5 8 0 0
BITMAP
00
00
00
08
18
38
78
F8
ENDCHAR
STARTCHAR BLACK
ENCODING 9699
SWIDTH 625 0
DWIDTH 5 0
BBX 5 8 0 0
BITMAP
00
00
00
80
C0
E0
F0
F8
ENDCHAR
STARTCHAR BLACK
ENCODING 9700
SWIDTH 625 0
DWIDTH 5 0
BBX 5 8 0 0
BITMAP
F8
F0
E0
C0
80
00
00
00
ENDCHAR
STARTCHAR BLACK
ENCODING 9701
SWIDTH 625 0
DWIDTH 5 0
BBX 5 8 0 0
BITMAP
F8
78
38
18
08
00
00
00
ENDCHAR
STARTCHAR BLACK
ENCODING 9829
SWIDTH 625 0
DWIDTH 5 0
BBX 5 8 0 0
BITMAP
00
50
F8
F8
70
20
00
00
ENDCHAR
STARTCHAR BLACK
ENCODING 9830
SWIDTH 625 0
DWIDTH 5 0
BBX 5 8 0 0
BITMAP
00
20
70
F8
70
20
00
00
ENDCHAR
STARTCHAR BRAILLE
ENCODING 10240
SWIDTH 625 0
DWIDTH 5 0
BBX 5 8 0 0
BITMAP
00
00
00
00
00
00
00
00
ENDCHAR
STARTCHAR BRAILLE
ENCODING 10241
SWIDTH 625 0
DWIDTH 5 0
BBX 5 8 0 0
BITMAP
40
00
00
00
00
00
00
00
ENDCHAR
STARTCHAR BRAILLE
ENCODING 10242
SWIDTH 625 0
DWIDTH 5 0
BBX 5 8 0 0
BITMAP
00
00
40
00
00
00
00
00
ENDCHAR
STARTCHAR BRAILLE
ENCODING 10243
SWIDTH 625 0
DWIDTH 5 0
BBX 5 8 0 0
BITMAP
40
00
40
00
00
00
00
00
ENDCHAR
STARTCHAR BRAILLE
ENCODING 10244
SWIDTH 625 0
DWIDTH 5 0
BBX 5 8 0 0
BITMAP
00
00
00
00
40
00
00
00
ENDCHAR
STARTCHAR BRAILLE
ENCODING 10245
SWIDTH 625 0
DWIDTH 5 0
BBX 5 8 0 0
BITMAP
40
00
00
00
40
00
00
00
ENDCHAR
STARTCHAR BRAILLE
ENCODING 10246
SWIDTH 625 0
DWIDTH 5 0
BBX 5 8 0 0
BITMAP
00
00
40
00
40
00
00
00
ENDCHAR
STARTCHAR BRAILLE
ENCODING 10247
SWIDTH 625 0
DWIDTH 5 0
BBX 5 8 0 0
BITMAP
40
00
40
00
40
00
00
00
ENDCHAR
STARTCHAR BRAILLE
ENCODING 10248
SWIDTH 625 0
DWIDTH 5 0
BBX 5 8 0 0
BITMAP
10
00
00
00
00
00
00
00
ENDCHAR
STARTCHAR BRAILLE
ENCODING 10249
SWIDTH 625 0
DWIDTH 5 0
BBX 5 8 0 0
BITMAP
50
00
00
00
00
00
00
00
ENDCHAR
STARTCHAR BRAILLE
ENCODING 10250
SWIDTH 625 0
DWIDTH 5 0
BBX 5 8 0 0
BITMAP
10
00
40
00
00
00
00
00
ENDCHAR
STARTCHAR BRAILLE
ENCODING 10251
SWIDTH 625 0
DWIDTH 5 0
BBX 5 8 0 0
BITMAP
50
00
40
00
00
00
00
00
ENDCHAR
STARTCHAR BRAILLE
ENCODING 10252
SWIDTH 625 0
DWIDTH 5 0
BBX 5 8 0 0
BITMAP
10
00
00
00
40
00
00
00
ENDCHAR
STARTCHAR BRAILLE
ENCODING 10253
SWIDTH 625 0
DWIDTH 5 0
BBX 5 8 0 0
BITMAP
50
00
00
00
40
00
00
00
ENDCHAR
STARTCHAR BRAILLE
ENCODING 10254
SWIDTH 625 0
DWIDTH 5 0
BBX 5 8 0 0
BITMAP
10
00
40
00
40
00
00
00
ENDCHAR
STARTCHAR BRAILLE
ENCODING 10255
SWIDTH 625 0
DWIDTH 5 0
BBX 5 8 0 0
BITMAP
50
00
40
00
40
00
00
00
ENDCHAR
STARTCHAR BRAILLE
ENCODING 10256
SWIDTH 625 0
DWIDTH 5 0
BBX 5 8 0 0
BITMAP
00
00
10
00
00
00
00
00
ENDCHAR
STARTCHAR BRAILLE
ENCODING 10257
SWIDTH 625 0
DWIDTH 5 0
BBX 5 8 0 0
BITMAP
40
00
10
00
00
00
00
00
ENDCHAR
STARTCHAR BRAILLE
ENCODING 10258
SWIDTH 625 0
DWIDTH 5 0
BBX 5 8 0 0
BITMAP
00
00
50
00
00
00
00
00
ENDCHAR
STARTCHAR BRAILLE
ENCODING 10259
SWIDTH 625 0
DWIDTH 5 0
BBX 5 8 0 0
BITMAP
40
00
50
00
00
00
00
00
ENDCHAR
STARTCHAR BRAILLE
ENCODING 10260
SWIDTH 625 0
DWIDTH 5 0
BBX 5 8 0 0
BITMAP
00
00
10
00
40
00
00
00
ENDCHAR
STARTCHAR BRAILLE
ENCODING 10261
SWIDTH 625 0
DWIDTH 5 0
BBX 5 8 0 0
BITMAP
40
00
10
00
40
00
00
00
ENDCHAR
STARTCHAR BRAILLE
ENCODING 10262
SWIDTH 625 0
DWIDTH 5 0
BBX 5 8 0 0
BITMAP
00
00
50
00
40
00
00
00
ENDCHAR
STARTCHAR BRAILLE
ENCODING 10263
SWIDTH 625 0
DWIDTH 5 0
BBX 5 8 0 0
BITMAP
40
00
50
00
40
00
00
00
ENDCHAR
STARTCHAR BRAILLE
ENCODING 10264
SWIDTH 625 0
DWIDTH 5 0
BBX 5 8 0 0
BITMAP
10
00
10
00
00
00
00
00
ENDCHAR
STARTCHAR BRAILLE
ENCODING 10265
SWIDTH 625 0
DWIDTH 5 0
BBX 5 8 0 0
BITMAP
50
00
10
00
00
00
00
00
ENDCHAR
STARTCHAR BRAILLE
ENCODING 10266
SWIDTH 625 0
DWIDTH 5 0
BBX 5 8 0 0
BITMAP
10
00
50
00
00
00
00
00
ENDCHAR
STARTCHAR BRAILLE
ENCODING 10267
SWIDTH 625 0
DWIDTH 5 0
BBX 5 8 0 0
BITMAP
50
00
50
00
00
00
00
00
ENDCHAR
STARTCHAR BRAILLE
ENCODING 10268
SWIDTH 625 0
DWIDTH 5 0
BBX 5 8 0 0
BITMAP
10
00
10
00
40
00
00
00
ENDCHAR
STARTCHAR BRAILLE
ENCODING 10269
SWIDTH 625 0
DWIDTH 5 0
BBX 5 8 0 0
BITMAP
50
00
10
00
40
00
00
00
ENDCHAR
STARTCHAR BRAILLE
ENCODING 10270
SWIDTH 625 0
DWIDTH 5 0
BBX 5 8 0 0
BITMAP
10
00
50
00
40
00
00
00
ENDCHAR
STARTCHAR BRAILLE
ENCODING 10271
SWIDTH 625 0
DWIDTH 5 0
BBX 5 8 0 0
BITMAP
50
00
50
00
40
00
00
00
ENDCHAR
STARTCHAR BRAILLE
ENCODING 10272
SWIDTH 625 0
DWIDTH 5 0
BBX 5 8 0 0
BITMAP
00
00
00
00
10
00
00
00
ENDCHAR
STARTCHAR BRAILLE
ENCODING 10273
SWIDTH 625 0
DWIDTH 5 0
BBX 5 8 0 0
BITMAP
40
00
00
00
10
00
00
00
ENDCHAR
STARTCHAR BRAILLE
ENCODING 10274
SWIDTH 625 0
DWIDTH 5 0
BBX 5 8 0 0
BITMAP
00
00
40
00
10
00
00
00
ENDCHAR
STARTCHAR BRAILLE
ENCODING 10275
SWIDTH 625 0
DWIDTH 5 0
BBX 5 8 0 0
BITMAP
40
00
40
00
10
00
00
00
ENDCHAR
STARTCHAR BRAILLE
ENCODING 10276
SWIDTH 625 0
DWIDTH 5 0
BBX 5 8 0 0
BITMAP
00
00
00
00
50
00
00
00
ENDCHAR
STARTCHAR BRAILLE
ENCODING 10277
SWIDTH 625 0
DWIDTH 5 0
BBX 5 8 0 0
BITMAP
40
00
00
00
50
00
00
00
ENDCHAR
STARTCHAR BRAILLE
ENCODING 10278
SWIDTH 625 0
DWIDTH 5 0
BBX 5 8 0 0
BITMAP
00
00
40
00
50
00
00
00
ENDCHAR
STARTCHAR BRAILLE
ENCODING 10279
SWIDTH 625 0
DWIDTH 5 0
BBX 5 8 0 0
BITMAP
40
00
40
00
50
00
00
00
ENDCHAR
STARTCHAR BRAILLE
ENCODING 10280
SWIDTH 625 0
DWIDTH 5 0
BBX 5 8 0 0
BITMAP
10
00
00
00
10
00
00
00
ENDCHAR
STARTCHAR BRAILLE
ENCODING 10281
SWIDTH 625 0
DWIDTH 5 0
BBX 5 8 0 0
BITMAP
50
00
00
00
10
00
00
00
ENDCHAR
STARTCHAR BRAILLE
ENCODING 10282
SWIDTH 625 0
DWIDTH 5 0
BBX 5 8 0 0
BITMAP
10
00
40
00
10
00
00
00
ENDCHAR
STARTCHAR BRAILLE
ENCODING 10283
SWIDTH 625 0
DWIDTH 5 0
BBX 5 8 0 0
BITMAP
50
00
40
00
10
00
00
00
ENDCHAR
STARTCHAR BRAILLE
ENCODING 10284
SWIDTH 625 0
DWIDTH 5 0
BBX 5 8 0 0
BITMAP
10
00
00
00
50
00
00
00
ENDCHAR
STARTCHAR BRAILLE
ENCODING 10285
SWIDTH 625 0
DWIDTH 5 0
BBX 5 8 0 0
BITMAP
50
00
00
00
50
00
00
00
ENDCHAR
STARTCHAR BRAILLE
ENCODING 10286
SWIDTH 625 0
DWIDTH 5 0
BBX 5 8 0 0
BITMAP
10
00
40
00
50
00
00
00
ENDCHAR
STARTCHAR BRAILLE
ENCODING 10287
SWIDTH 625 0
DWIDTH 5 0
BBX 5 8 0 0
BITMAP
50
00
40
00
50
00
00
00
ENDCHAR
STARTCHAR BRAILLE
ENCODING 10288
SWIDTH 625 0
DWIDTH 5 0
BBX 5 8 0 0
BITMAP
00
00
10
00
10
00
00
00
ENDCHAR
STARTCHAR BRAILLE
ENCODING 10289
SWIDTH 625 0
DWIDTH 5 0
BBX 5 8 0 0
BITMAP
40
00
10
00
10
00
00
00
ENDCHAR
STARTCHAR BRAILLE
ENCODING 10290
SWIDTH 625 0
DWIDTH 5 0
BBX 5 8 0 0
BITMAP
00
00
50
00
10
00
00
00
ENDCHAR
STARTCHAR BRAILLE
ENCODING 10291
SWIDTH 625 0
DWIDTH 5 0
BBX 5 8 0 0
BITMAP
40
00
50
00
10
00
00
00
ENDCHAR
STARTCHAR BRAILLE
ENCODING 10292
SWIDTH 625 0
DWIDTH 5 0
BBX 5 8 0 0
BITMAP
00
00
10
00
50
00
00
00
ENDCHAR
STARTCHAR BRAILLE
ENCODING 10293
SWIDTH 625 0
DWIDTH 5 0
BBX 5 8 0 0
BITMAP
40
00
10
00
50
00
00
00
ENDCHAR
STARTCHAR BRAILLE
ENCODING 10294
SWIDTH 625 0
DWIDTH 5 0
BBX 5 8 0 0
BITMAP
00
00
50
00
50
00
00
00
ENDCHAR
STARTCHAR BRAILLE
ENCODING 10295
SWIDTH 625 0
DWIDTH 5 0
BBX 5 8 0 0
BITMAP
40
00
50
00
50
00
00
00
ENDCHAR
STARTCHAR BRAILLE
ENCODING 10296
SWIDTH 625 0
DWIDTH 5 0
BBX 5 8 0 0
BITMAP
10
00
10
00
10
00
00
00
ENDCHAR
STARTCHAR BRAILLE
ENCODING 10297
SWIDTH 625 0
DWIDTH 5 0
BBX 5 8 0 0
BITMAP
50
00
10
00
10
00
00
00
ENDCHAR
STARTCHAR BRAILLE
ENCODING 10298
SWIDTH 625 0
DWIDTH 5 0
BBX 5 8 0 0
BITMAP
10
00
50
00
10
00
00
00
ENDCHAR
STARTCHAR BRAILLE
ENCODING 10299
SWIDTH 625 0
DWIDTH 5 0
BBX 5 8 0 0
BITMAP
50
00
50
00
10
00
00
00
ENDCHAR
STARTCHAR BRAILLE
ENCODING 10300
SWIDTH 625 0
DWIDTH 5 0
BBX 5 8 0 0
BITMAP
10
00
10
00
50
00
00
00
ENDCHAR
STARTCHAR BRAILLE
ENCODING 10301
SWIDTH 625 0
DWIDTH 5 0
BBX 5 8 0 0
BITMAP
50
00
10
00
50
00
00
00
ENDCHAR
STARTCHAR BRAILLE
ENCODING 10302
SWIDTH 625 0
DWIDTH 5 0
BBX 5 8 0 0
BITMAP
10
00
50
00
50
00
00
00
ENDCHAR
STARTCHAR BRAILLE
ENCODING 10303
SWIDTH 625 0
DWIDTH 5 0
BBX 5 8 0 0
BITMAP
50
00
50
00
50
00
00
00
ENDCHAR
STARTCHAR BRAILLE
ENCODING 10304
SWIDTH 625 0
DWIDTH 5 0
BBX 5 8 0 0
BITMAP
00
00
00
00
00
00
40
00
ENDCHAR
STARTCHAR BRAILLE
ENCODING 10305
SWIDTH 625 0
DWIDTH 5 0
BBX 5 8 0 0
BITMAP
40
00
00
00
00
00
40
00
ENDCHAR
STARTCHAR BRAILLE
ENCODING 10306
SWIDTH 625 0
DWIDTH 5 0
BBX 5 8 0 0
BITMAP
00
00
40
00
00
00
40
00
ENDCHAR
STARTCHAR BRAILLE
ENCODING 10307
SWIDTH 625 0
DWIDTH 5 0
BBX 5 8 0 0
BITMAP
40
00
40
00
00
00
40
00
ENDCHAR
STARTCHAR BRAILLE
ENCODING 10308
SWIDTH 625 0
DWIDTH 5 0
BBX 5 8 0 0
BITMAP
00
00
00
00
40
00
40
00
ENDCHAR
STARTCHAR BRAILLE
ENCODING 10309
SWIDTH 625 0
DWIDTH 5 0
BBX 5 8 0 0
BITMAP
40
00
00
00
40
00
40
00
ENDCHAR
STARTCHAR BRAILLE
ENCODING 10310
SWIDTH 625 0
DWIDTH 5 0
BBX 5 8 0 0
BITMAP
00
00
40
00
40
00
40
00
ENDCHAR
STARTCHAR BRAILLE
ENCODING 10311
SWIDTH 625 0
DWIDTH 5 0
BBX 5 8 0 0
BITMAP
40
00
40
00
40
00
40
00
ENDCHAR
STARTCHAR BRAILLE
ENCODING 10312
SWIDTH 625 0
DWIDTH 5 0
BBX 5 8 0 0
BITMAP
10
00
00
00
00
00
40
00
ENDCHAR
STARTCHAR BRAILLE
ENCODING 10313
SWIDTH 625 0
DWIDTH 5 0
BBX 5 8 0 0
BITMAP
50
00
00
00
00
00
40
00
ENDCHAR
STARTCHAR BRAILLE
ENCODING 10314
SWIDTH 625 0
DWIDTH 5 0
BBX 5 8 0 0
BITMAP
10
00
40
00
00
00
40
00
ENDCHAR
STARTCHAR BRAILLE
ENCODING 10315
SWIDTH 625 0
DWIDTH 5 0
BBX 5 8 0 0
BITMAP
50
00
40
00
00
00
40
00
ENDCHAR
STARTCHAR BRAILLE
ENCODING 10316
SWIDTH 625 0
DWIDTH 5 0
BBX 5 8 0 0
BITMAP
10
00
00
00
40
00
40
00
ENDCHAR
STARTCHAR BRAILLE
ENCODING 10317
SWIDTH 625 0
DWIDTH 5 0
BBX 5 8 0 0
BITMAP
50
00
00
00
40
00
40
00
ENDCHAR
STARTCHAR BRAILLE
ENCODING 10318
SWIDTH 625 0
DWIDTH 5 0
BBX 5 8 0 0
BITMAP
10
00
40
00
40
00
40
00
ENDCHAR
STARTCHAR BRAILLE
ENCODING 10319
SWIDTH 625 0
DWIDTH 5 0
BBX 5 8 0 0
BITMAP
50
00
40
00
40
00
40
00
ENDCHAR
STARTCHAR BRAILLE
ENCODING 10320
SWIDTH 625 0
DWIDTH 5 0
BBX 5 8 0 0
BITMAP
00
00
10
00
00
00
40
00
ENDCHAR
STARTCHAR BRAILLE
ENCODING 10321
SWIDTH 625 0
DWIDTH 5 0
BBX 5 8 0 0
BITMAP
40
00
10
00
00
00
40
00
ENDCHAR
STARTCHAR BRAILLE
ENCODING 10322
SWIDTH 625 0
DWIDTH 5 0
BBX 5 8 0 0
BITMAP
00
00
50
00
00
00
40
00
ENDCHAR
STARTCHAR BRAILLE
ENCODING 10323
SWIDTH 625 0
DWIDTH 5 0
BBX 5 8 0 0
BITMAP
40
00
50
00
00
00
40
00
ENDCHAR
STARTCHAR BRAILLE
ENCODING 10324
SWIDTH 625 0
DWIDTH 5 0
BBX 5 8 0 0
BITMAP
00
00
10
00
40
00
40
00
ENDCHAR
STARTCHAR BRAILLE
ENCODING 10325
SWIDTH 625 0
DWIDTH 5 0
BBX 5 8 0 0
BITMAP
40
00
10
00
40
00
40
00
ENDCHAR
STARTCHAR BRAILLE
ENCODING 10326
SWIDTH 625 0
DWIDTH 5 0
BBX 5 8 0 0
BITMAP
00
00
50
00
40
00
40
00
ENDCHAR
STARTCHAR BRAILLE
ENCODING 10327
SWIDTH 625 0
DWIDTH 5 0
BBX 5 8 0 0
BITMAP
40
00
50
00
40
00
40
00
ENDCHAR
STARTCHAR BRAILLE
ENCODING 10328
SWIDTH 625 0
DWIDTH 5 0
BBX 5 8 0 0
BITMAP
10
00
10
00
00
00
40
00
ENDCHAR
STARTCHAR BRAILLE
ENCODING 10329
SWIDTH 625 0
DWIDTH 5 0
BBX 5 8 0 0
BITMAP
50
00
10
00
00
00
40
00
ENDCHAR
STARTCHAR BRAILLE
ENCODING 10330
SWIDTH 625 0
DWIDTH 5 0
BBX 5 8 0 0
BITMAP
10
00
50
00
00
00
40
00
ENDCHAR
STARTCHAR BRAILLE
ENCODING 10331
SWIDTH 625 0
DWIDTH 5 0
BBX 5 8 0 0
BITMAP
50
00
50
00
00
00
40
00
ENDCHAR
STARTCHAR BRAILLE
ENCODING 10332
SWIDTH 625 0
DWIDTH 5 0
BBX 5 8 0 0
BITMAP
10
00
10
00
40
00
40
00
ENDCHAR
STARTCHAR BRAILLE
ENCODING 10333
SWIDTH 625 0
DWIDTH 5 0
BBX 5 8 0 0
BITMAP
50
00
10
00
40
00
40
00
ENDCHAR
STARTCHAR BRAILLE
ENCODING 10334
SWIDTH 625 0
DWIDTH 5 0
BBX 5 8 0 0
BITMAP
10
00
50
00
40
00
40
00
ENDCHAR
STARTCHAR BRAILLE
ENCODING 10335
SWIDTH 625 0
DWIDTH 5 0
BBX 5 8 0 0
BITMAP
50
00
50
00
40
00
40
00
ENDCHAR
STARTCHAR BRAILLE
ENCODING 10336
SWIDTH 625 0
DWIDTH 5 0
BBX 5 8 0 0
BITMAP
00
00
00
00
10
00
40
00
ENDCHAR
STARTCHAR BRAILLE
ENCODING 10337
SWIDTH 625 0
DWIDTH 5 0
BBX 5 8 0 0
BITMAP
40
00
00
00
10
00
40
00
ENDCHAR
STARTCHAR BRAILLE
ENCODING 10338
SWIDTH 625 0
DWIDTH 5 0
BBX 5 8 0 0
BITMAP
00
00
40
00
10
00
40
00
ENDCHAR
STARTCHAR BRAILLE
ENCODING 10339
SWIDTH 625 0
DWIDTH 5 0
BBX 5 8 0 0
BITMAP
40
00
40
00
10
00
40
00
ENDCHAR
STARTCHAR BRAILLE
ENCODING 10340
SWIDTH 625 0
DWIDTH 5 0
BBX 5 8 0 0
BITMAP
00
00
00
00
50
00
40
00
ENDCHAR
STARTCHAR BRAILLE
ENCODING 10341
SWIDTH 625 0
DWIDTH 5 0
BBX 5 8 0 0
BITMAP
40
00
00
00
50
00
40
00
ENDCHAR
STARTCHAR BRAILLE
ENCODING 10342
SWIDTH 625 0
DWIDTH 5 0
BBX 5 8 0 0
BITMAP
00
00
40
00
50
00
40
00
ENDCHAR
STARTCHAR BRAILLE
ENCODING 10343
SWIDTH 625 0
DWIDTH 5 0
BBX 5 8 0 0
BITMAP
40
00
40
00
50
00
40
00
ENDCHAR
STARTCHAR BRAILLE
ENCODING 10344
SWIDTH 625 0
DWIDTH 5 0
BBX 5 8 0 0
BITMAP
10
00
00
00
10
00
40
00
ENDCHAR
STARTCHAR BRAILLE
ENCODING 10345
SWIDTH 625 0
DWIDTH 5 0
BBX 5 8 0 0
BITMAP
50
00
00
00
10
00
40
00
ENDCHAR
STARTCHAR BRAILLE
ENCODING 10346
SWIDTH 625 0
DWIDTH 5 0
BBX 5 8 0 0
BITMAP
10
00
40
00
10
00
40
00
ENDCHAR
STARTCHAR BRAILLE
ENCODING 10347
SWIDTH 625 0
DWIDTH 5 0
BBX 5 8 0 0
BITMAP
50
00
40
00
10
00
40
00
ENDCHAR
STARTCHAR BRAILLE
ENCODING 10348
SWIDTH 625 0
DWIDTH 5 0
BBX 5 8 0 0
BITMAP
10
00
00
00
50
00
40
00
ENDCHAR
STARTCHAR BRAILLE
ENCODING 10349
SWIDTH 625 0
DWIDTH 5 0
BBX 5 8 0 0
BITMAP
50
00
00
00
50
00
40
00
ENDCHAR
STARTCHAR BRAILLE
ENCODING 10350
SWIDTH 625 0
DWIDTH 5 0
BBX 5 8 0 0
BITMAP
10
00
40
00
50
00
40
00
ENDCHAR
STARTCHAR BRAILLE
ENCODING 10351
SWIDTH 625 0
DWIDTH 5 0
BBX 5 8 0 0
BITMAP
50
00
40
00
50
00
40
00
ENDCHAR
STARTCHAR BRAILLE
ENCODING 10352
SWIDTH 625 0
DWIDTH 5 0
BBX 5 8 0 0
BITMAP
00
00
10
00
10
00
40
00
ENDCHAR
STARTCHAR BRAILLE
ENCODING 10353
SWIDTH 625 0
DWIDTH 5 0
BBX 5 8 0 0
BITMAP
40
00
10
00
10
00
40
00
ENDCHAR
STARTCHAR BRAILLE
ENCODING 10354
SWIDTH 625 0
DWIDTH 5 0
BBX 5 8 0 0
BITMAP
00
00
50
00
10
00
40
00
ENDCHAR
STARTCHAR BRAILLE
ENCODING 10355
SWIDTH 625 0
DWIDTH 5 0
BBX 5 8 0 0
BITMAP
40
00
50
00
10
00
40
00
ENDCHAR
STARTCHAR BRAILLE
ENCODING 10356
SWIDTH 625 0
DWIDTH 5 0
BBX 5 8 0 0
BITMAP
00
00
10
00
50
00
40
00
ENDCHAR
STARTCHAR BRAILLE
ENCODING 10357
SWIDTH 625 0
DWIDTH 5 0
BBX 5 8 0 0
BITMAP
40
00
10
00
50
00
40
00
ENDCHAR
STARTCHAR BRAILLE
ENCODING 10358
SWIDTH 625 0
DWIDTH 5 0
BBX 5 8 0 0
BITMAP
00
00
50
00
50
00
40
00
ENDCHAR
STARTCHAR BRAILLE
ENCODING 10359
SWIDTH 625 0
DWIDTH 5 0
BBX 5 8 0 0
BITMAP
40
00
50
00
50
00
40
00
ENDCHAR
STARTCHAR BRAILLE
ENCODING 10360
SWIDTH 625 0
DWIDTH 5 0
BBX 5 8 0 0
BITMAP
10
00
10
00
10
00
40
00
ENDCHAR
STARTCHAR BRAILLE
ENCODING 10361
SWIDTH 625 0
DWIDTH 5 0
BBX 5 8 0 0
BITMAP
50
00
10
00
10
00
40
00
ENDCHAR
STARTCHAR BRAILLE
ENCODING 10362
SWIDTH 625 0
DWIDTH 5 0
BBX 5 8 0 0
BITMAP
10
00
50
00
10
00
40
00
ENDCHAR
STARTCHAR BRAILLE
ENCODING 10363
SWIDTH 625 0
DWIDTH 5 0
BBX 5 8 0 0
BITMAP
50
00
50
00
10
00
40
00
ENDCHAR
STARTCHAR BRAILLE
ENCODING 10364
SWIDTH 625 0
DWIDTH 5 0
BBX 5 8 0 0
BITMAP
10
00
10
00
50
00
40
00
ENDCHAR
STARTCHAR BRAILLE
ENCODING 10365
SWIDTH 625 0
DWIDTH 5 0
BBX 5 8 0 0
BITMAP
50
00
10
00
50
00
40
00
ENDCHAR
STARTCHAR BRAILLE
ENCODING 10366
SWIDTH 625 0
DWIDTH 5 0
BBX 5 8 0 0
BITMAP
10
00
50
00
50
00
40
00
ENDCHAR
STARTCHAR BRAILLE
ENCODING 10367
SWIDTH 625 0
DWIDTH 5 0
BBX 5 8 0 0
BITMAP
50
00
50
00
50
00
40
00
ENDCHAR
STARTCHAR BRAILLE
ENCODING 10368
SWIDTH 625 0
DWIDTH 5 0
BBX 5 8 0 0
BITMAP
00
00
00
00
00
00
10
00
ENDCHAR
STARTCHAR BRAILLE
ENCODING 10369
SWIDTH 625 0
DWIDTH 5 0
BBX 5 8 0 0
BITMAP
40
00
00
00
00
00
10
00
ENDCHAR
STARTCHAR BRAILLE
ENCODING 10370
SWIDTH 625 0
DWIDTH 5 0
BBX 5 8 0 0
BITMAP
00
00
40
00
00
00
10
00
ENDCHAR
STARTCHAR BRAILLE
ENCODING 10371
SWIDTH 625 0
DWIDTH 5 0
BBX 5 8 0 0
BITMAP
40
00
40
00
00
00
10
00
ENDCHAR
STARTCHAR BRAILLE
ENCODING 10372
SWIDTH 625 0
DWIDTH 5 0
BBX 5 8 0 0
BITMAP
00
00
00
00
40
00
10
00
ENDCHAR
STARTCHAR BRAILLE
ENCODING 10373
SWIDTH 625 0
DWIDTH 5 0
BBX 5 8 0 0
BITMAP
40
00
00
00
40
00
10
00
ENDCHAR
STARTCHAR BRAILLE
ENCODING 10374
SWIDTH 625 0
DWIDTH 5 0
BBX 5 8 0 0
BITMAP
00
00
40
00
40
00
10
00
ENDCHAR
STARTCHAR BRAILLE
ENCODING 10375
SWIDTH 625 0
DWIDTH 5 0
BBX 5 8 0 0
BITMAP
40
00
40
00
40
00
10
00
ENDCHAR
STARTCHAR BRAILLE
ENCODING 10376
SWIDTH 625 0
DWIDTH 5 0
BBX 5 8 0 0
BITMAP
10
00
00
00
00
00
10
00
ENDCHAR
STARTCHAR BRAILLE
ENCODING 10377
SWIDTH 625 0
DWIDTH 5 0
BBX 5 8 0 0
BITMAP
50
00
00
00
00
00
10
00
ENDCHAR
STARTCHAR BRAILLE
ENCODING 10378
SWIDTH 625 0
DWIDTH 5 0
BBX 5 8 0 0
BITMAP
10
00
40
00
00
00
10
00
ENDCHAR
STARTCHAR BRAILLE
ENCODING 10379
SWIDTH 625 0
DWIDTH 5 0
BBX 5 8 0 0
BITMAP
50
00
40
00
00
00
10
00
ENDCHAR
STARTCHAR BRAILLE
ENCODING 10380
SWIDTH 625 0
DWIDTH 5 0
BBX 5 8 0 0
BITMAP
10
00
00
00
40
00
10
00
ENDCHAR
STARTCHAR BRAILLE
ENCODING 10381
SWIDTH 625 0
DWIDTH 5 0
BBX 5 8 0 0
BITMAP
50
00
00
00
40
00
10
00
ENDCHAR
STARTCHAR BRAILLE
ENCODING 10382
SWIDTH 625 0
DWIDTH 5 0
BBX 5 8 0 0
BITMAP
10
00
40
00
40
00
10
00
ENDCHAR
STARTCHAR BRAILLE
ENCODING 10383
SWIDTH 625 0
DWIDTH 5 0
BBX 5 8 0 0
BITMAP
50
00
40
00
40
00
10
00
ENDCHAR
STARTCHAR BRAILLE
ENCODING 10384
SWIDTH 625 0
DWIDTH 5 0
BBX 5 8 0 0
BITMAP
00
00
10
00
00
00
10
00
ENDCHAR
STARTCHAR BRAILLE
ENCODING 10385
SWIDTH 625 0
DWIDTH 5 0
BBX 5 8 0 0
BITMAP
40
00
10
00
00
00
10
00
ENDCHAR
STARTCHAR BRAILLE
ENCODING 10386
SWIDTH 625 0
DWIDTH 5 0
BBX 5 8 0 0
BITMAP
00
00
50
00
00
00
10
00
ENDCHAR
STARTCHAR BRAILLE
ENCODING 10387
SWIDTH 625 0
DWIDTH 5 0
BBX 5 8 0 0
BITMAP
40
00
50
00
00
00
10
00
ENDCHAR
STARTCHAR BRAILLE
ENCODING 10388
SWIDTH 625 0
DWIDTH 5 0
BBX 5 8 0 0
BITMAP
00
00
10
00
40
00
10
00
ENDCHAR
STARTCHAR BRAILLE
ENCODING 10389
SWIDTH 625 0
DWIDTH 5 0
BBX 5 8 0 0
BITMAP
40
00
10
00
40
00
10
00
ENDCHAR
STARTCHAR BRAILLE
ENCODING 10390
SWIDTH 625 0
DWIDTH 5 0
BBX 5 8 0 0
BITMAP
00
00
50
00
40
00
10
00
ENDCHAR
STARTCHAR BRAILLE
ENCODING 10391
SWIDTH 625 0
DWIDTH 5 0
BBX 5 8 0 0
BITMAP
40
00
50
00
40
00
10
00
ENDCHAR
STARTCHAR BRAILLE
ENCODING 10392
SWIDTH 625 0
DWIDTH 5 0
BBX 5 8 0 0
BITMAP
10
00
10
00
00
00
10
00
ENDCHAR
STARTCHAR BRAILLE
ENCODING 10393
SWIDTH 625 0
DWIDTH 5 0
BBX 5 8 0 0
BITMAP
50
00
10
00
00
00
10
00
ENDCHAR
STARTCHAR BRAILLE
ENCODING 10394
SWIDTH 625 0
DWIDTH 5 0
BBX 5 8 0 0
BITMAP
10
00
50
00
00
00
10
00
ENDCHAR
STARTCHAR BRAILLE
ENCODING 10395
SWIDTH 625 0
DWIDTH 5 0
BBX 5 8 0 0
BITMAP
50
00
50
00
00
00
10
00
ENDCHAR
STARTCHAR BRAILLE
ENCODING 10396
SWIDTH 625 0
DWIDTH 5 0
BBX 5 8 0 0
BITMAP
10
00
10
00
40
00
10
00
ENDCHAR
STARTCHAR BRAILLE
ENCODING 10397
SWIDTH 625 0
DWIDTH 5 0
BBX 5 8 0 0
BITMAP
50
00
10
00
40
00
10
00
ENDCHAR
STARTCHAR BRAILLE
ENCODING 10398
SWIDTH 625 0
DWIDTH 5 0
BBX 5 8 0 0
BITMAP
10
00
50
00
40
00
10
00
ENDCHAR
STARTCHAR BRAILLE
ENCODING 10399
SWIDTH 625 0
DWIDTH 5 0
BBX 5 8 0 0
BITMAP
50
00
50
00
40
00
10
00
ENDCHAR
STARTCHAR BRAILLE
ENCODING 10400
SWIDTH 625 0
DWIDTH 5 0
BBX 5 8 0 0
BITMAP
00
00
00
00
10
00
10
00
ENDCHAR
STARTCHAR BRAILLE
ENCODING 10401
SWIDTH 625 0
DWIDTH 5 0
BBX 5 8 0 0
BITMAP
40
00
00
00
10
00
10
00
ENDCHAR
STARTCHAR BRAILLE
ENCODING 10402
SWIDTH 625 0
DWIDTH 5 0
BBX 5 8 0 0
BITMAP
00
00
40
00
10
00
10
00
ENDCHAR
STARTCHAR BRAILLE
ENCODING 10403
SWIDTH 625 0
DWIDTH 5 0
BBX 5 8 0 0
BITMAP
40
00
40
00
10
00
10
00
ENDCHAR
STARTCHAR BRAILLE
ENCODING 10404
SWIDTH 625 0
DWIDTH 5 0
BBX 5 8 0 0
BITMAP
00
00
00
00
50
00
10
00
ENDCHAR
STARTCHAR BRAILLE
ENCODING 10405
SWIDTH 625 0
DWIDTH 5 0
BBX 5 8 0 0
BITMAP
40
00
00
00
50
00
10
00
ENDCHAR
STARTCHAR BRAILLE
ENCODING 10406
SWIDTH 625 0
DWIDTH 5 0
BBX 5 8 0 0
BITMAP
00
00
40
00
50
00
10
00
ENDCHAR
STARTCHAR BRAILLE
ENCODING 10407
SWIDTH 625 0
DWIDTH 5 0
BBX 5 8 0 0
BITMAP
40
00
40
00
50
00
10
00
ENDCHAR
STARTCHAR BRAILLE
ENCODING 10408
SWIDTH 625 0
DWIDTH 5 0
BBX 5 8 0 0
BITMAP
10
00
00
00
10
00
10
00
ENDCHAR
STARTCHAR BRAILLE
ENCODING 10409
SWIDTH 625 0
DWIDTH 5 0
BBX 5 8 0 0
BITMAP
50
00
00
00
10
00
10
00
ENDCHAR
STARTCHAR BRAILLE
ENCODING 10410
SWIDTH 625 0
DWIDTH 5 0
BBX 5 8 0 0
BITMAP
10
00
40
00
10
00
10
00
ENDCHAR
STARTCHAR BRAILLE
ENCODING 10411
SWIDTH 625 0
DWIDTH 5 0
BBX 5 8 0 0
BITMAP
50
00
40
00
10
00
10
00
ENDCHAR
STARTCHAR BRAILLE
ENCODING 10412
SWIDTH 625 0
DWIDTH 5 0
BBX 5 8 0 0
BITMAP
10
00
00
00
50
00
10
00
ENDCHAR
STARTCHAR BRAILLE
ENCODING 10413
SWIDTH 625 0
DWIDTH 5 0
BBX 5 8 0 0
BITMAP
50
00
00
00
50
00
10
00
ENDCHAR
STARTCHAR BRAILLE
ENCODING 10414
SWIDTH 625 0
DWIDTH 5 0
BBX 5 8 0 0
BITMAP
10
00
40
00
50
00
10
00
ENDCHAR
STARTCHAR BRAILLE
ENCODING 10415
SWIDTH 625 0
DWIDTH 5 0
BBX 5 8 0 0
BITMAP
50
00
40
00
50
00
10
00
ENDCHAR
STARTCHAR BRAILLE
ENCODING 10416
SWIDTH 625 0
DWIDTH 5 0
BBX 5 8 0 0
BITMAP
00
00
10
00
10
00
10
00
ENDCHAR
STARTCHAR BRAILLE
ENCODING 10417
SWIDTH 625 0
DWIDTH 5 0
BBX 5 8 0 0
BITMAP
40
00
10
00
10
00
10
00
ENDCHAR
STARTCHAR BRAILLE
ENCODING 10418
SWIDTH 625 0
DWIDTH 5 0
BBX 5 8 0 0
BITMAP
00
00
50
00
10
00
10
00
ENDCHAR
STARTCHAR BRAILLE
ENCODING 10419
SWIDTH 625 0
DWIDTH 5 0
BBX 5 8 0 0
BITMAP
40
00
50
00
10
00
10
00
ENDCHAR
STARTCHAR BRAILLE
ENCODING 10420
SWIDTH 625 0
DWIDTH 5 0
BBX 5 8 0 0
BITMAP
00
00
10
00
50
00
10
00
ENDCHAR
STARTCHAR BRAILLE
ENCODING 10421
SWIDTH 625 0
DWIDTH 5 0
BBX 5 8 0 0
BITMAP
40
00
10
00
50
00
10
00
ENDCHAR
STARTCHAR BRAILLE
ENCODING 10422
SWIDTH 625 0
DWIDTH 5 0
BBX 5 8 0 0
BITMAP
00
00
50
00
50
00
10
00
ENDCHAR
STARTCHAR BRAILLE
ENCODING 10423
SWIDTH 625 0
DWIDTH 5 0
BBX 5 8 0 0
BITMAP
40
00
50
00
50
00
10
00
ENDCHAR
STARTCHAR BRAILLE
ENCODING 10424
SWIDTH 625 0
DWIDTH 5 0
BBX 5 8 0 0
BITMAP
10
00
10
00
10
00
10
00
ENDCHAR
STARTCHAR BRAILLE
ENCODING 10425
SWIDTH 625 0
DWIDTH 5 0
BBX 5 8 0 0
BITMAP
50
00
10
00
10
00
10
00
ENDCHAR
STARTCHAR BRAILLE
ENCODING 10426
SWIDTH 625 0
DWIDTH 5 0
BBX 5 8 0 0
BITMAP
10
00
50
00
10
00
10
00
ENDCHAR
STARTCHAR BRAILLE
ENCODING 10427
SWIDTH 625 0
DWIDTH 5 0
BBX 5 8 0 0
BITMAP
50
00
50
00
10
00
10
00
ENDCHAR
STARTCHAR BRAILLE
ENCODING 10428
SWIDTH 625 0
DWIDTH 5 0
BBX 5 8 0 0
BITMAP
10
00
10
00
50
00
10
00
ENDCHAR
STARTCHAR BRAILLE
ENCODING 10429
SWIDTH 625 0
DWIDTH 5 0
BBX 5 8 0 0
BITMAP
50
00
10
00
50
00
10
00
ENDCHAR
STARTCHAR BRAILLE
ENCODING 10430
SWIDTH 625 0
DWIDTH 5 0
BBX 5 8 0 0
BITMAP
10
00
50
00
50
00
10
00
ENDCHAR
STARTCHAR BRAILLE
ENCODING 10431
SWIDTH 625 0
DWIDTH 5 0
BBX 5 8 0 0
BITMAP
50
00
50
00
50
00
10
00
ENDCHAR
STARTCHAR BRAILLE
ENCODING 10432
SWIDTH 625 0
DWIDTH 5 0
BBX 5 8 0 0
BITMAP
00
00
00
00
00
00
50
00
ENDCHAR
STARTCHAR BRAILLE
ENCODING 10433
SWIDTH 625 0
DWIDTH 5 0
BBX 5 8 0 0
BITMAP
40
00
00
00
00
00
50
00
ENDCHAR
STARTCHAR BRAILLE
ENCODING 10434
SWIDTH 625 0
DWIDTH 5 0
BBX 5 8 0 0
BITMAP
00
00
40
00
00
00
50
00
ENDCHAR
STARTCHAR BRAILLE
ENCODING 10435
SWIDTH 625 0
DWIDTH 5 0
BBX 5 8 0 0
BITMAP
40
00
40
00
00
00
50
00
ENDCHAR
STARTCHAR BRAILLE
ENCODING 10436
SWIDTH 625 0
DWIDTH 5 0
BBX 5 8 0 0
BITMAP
00
00
00
00
40
00
50
00
ENDCHAR
STARTCHAR BRAILLE
ENCODING 10437
SWIDTH 625 0
DWIDTH 5 0
BBX 5 8 0 0
BITMAP
40
00
00
00
40
00
50
00
ENDCHAR
STARTCHAR BRAILLE
ENCODING 10438
SWIDTH 625 0
DWIDTH 5 0
BBX 5 8 0 0
BITMAP
00
00
40
00
40
00
50
00
ENDCHAR
STARTCHAR BRAILLE
ENCODING 10439
SWIDTH 625 0
DWIDTH 5 0
BBX 5 8 0 0
BITMAP
40
00
40
00
40
00
50
00
ENDCHAR
STARTCHAR BRAILLE
ENCODING 10440
SWIDTH 625 0
DWIDTH 5 0
BBX 5 8 0 0
BITMAP
10
00
00
00
00
00
50
00
ENDCHAR
STARTCHAR BRAILLE
ENCODING 10441
SWIDTH 625 0
DWIDTH 5 0
BBX 5 8 0 0
BITMAP
50
00
00
00
00
00
50
00
ENDCHAR
STARTCHAR BRAILLE
ENCODING 10442
SWIDTH 625 0
DWIDTH 5 0
BBX 5 8 0 0
BITMAP
10
00
40
00
00
00
50
00
ENDCHAR
STARTCHAR BRAILLE
ENCODING 10443
SWIDTH 625 0
DWIDTH 5 0
BBX 5 8 0 0
BITMAP
50
00
40
00
00
00
50
00
ENDCHAR
STARTCHAR BRAILLE
ENCODING 10444
SWIDTH 625 0
DWIDTH 5 0
BBX 5 8 0 0
BITMAP
10
00
00
00
40
00
50
00
ENDCHAR
STARTCHAR BRAILLE
ENCODING 10445
SWIDTH 625 0
DWIDTH 5 0
BBX 5 8 0 0
BITMAP
50
00
00
00
40
00
50
00
ENDCHAR
STARTCHAR BRAILLE
ENCODING 10446
SWIDTH 625 0
DWIDTH 5 0
BBX 5 8 0 0
BITMAP
10
00
40
00
40
00
50
00
ENDCHAR
STARTCHAR BRAILLE
ENCODING 10447
SWIDTH 625 0
DWIDTH 5 0
BBX 5 8 0 0
BITMAP
50
00
40
00
40
00
50
00
ENDCHAR
STARTCHAR BRAILLE
ENCODING 10448
SWIDTH 625 0
DWIDTH 5 0
BBX 5 8 0 0
BITMAP
00
00
10
00
00
00
50
00
ENDCHAR
STARTCHAR BRAILLE
ENCODING 10449
SWIDTH 625 0
DWIDTH 5 0
BBX 5 8 0 0
BITMAP
40
00
10
00
00
00
50
00
ENDCHAR
STARTCHAR BRAILLE
ENCODING 10450
SWIDTH 625 0
DWIDTH 5 0
BBX 5 8 0 0
BITMAP
00
00
50
00
00
00
50
00
ENDCHAR
STARTCHAR BRAILLE
ENCODING 10451
SWIDTH 625 0
DWIDTH 5 0
BBX 5 8 0 0
BITMAP
40
00
50
00
00
00
50
00
ENDCHAR
STARTCHAR BRAILLE
ENCODING 10452
SWIDTH 625 0
DWIDTH 5 0
BBX 5 8 0 0
BITMAP
00
00
10
00
40
00
50
00
ENDCHAR
STARTCHAR BRAILLE
ENCODING 10453
SWIDTH 625 0
DWIDTH 5 0
BBX 5 8 0 0
BITMAP
40
00
10
00
40
00
50
00
ENDCHAR
STARTCHAR BRAILLE
ENCODING 10454
SWIDTH 625 0
DWIDTH 5 0
BBX 5 8 0 0
BITMAP
00
00
50
00
40
00
50
00
ENDCHAR
STARTCHAR BRAILLE
ENCODING 10455
SWIDTH 625 0
DWIDTH 5 0
BBX 5 8 0 0
BITMAP
40
00
50
00
40
00
50
00
ENDCHAR
STARTCHAR BRAILLE
ENCODING 10456
SWIDTH 625 0
DWIDTH 5 0
BBX 5 8 0 0
BITMAP
10
00
10
00
00
00
50
00
ENDCHAR
STARTCHAR BRAILLE
ENCODING 10457
SWIDTH 625 0
DWIDTH 5 0
BBX 5 8 0 0
BITMAP
50
00
10
00
00
00
50
00
ENDCHAR
STARTCHAR BRAILLE
ENCODING 10458
SWIDTH 625 0
DWIDTH 5 0
BBX 5 8 0 0
BITMAP
10
00
50
00
00
00
50
00
ENDCHAR
STARTCHAR BRAILLE
ENCODING 10459
SWIDTH 625 0
DWIDTH 5 0
BBX 5 8 0 0
BITMAP
50
00
50
00
00
00
50
00
ENDCHAR
STARTCHAR BRAILLE
ENCODING 10460
SWIDTH 625 0
DWIDTH 5 0
BBX 5 8 0 0
BITMAP
10
00
10
00
40
00
50
00
ENDCHAR
STARTCHAR BRAILLE
ENCODING 10461
SWIDTH 625 0
DWIDTH 5 0
BBX 5 8 0 0
BITMAP
50
00
10
00
40
00
50
00
ENDCHAR
STARTCHAR BRAILLE
ENCODING 10462
SWIDTH 625 0
DWIDTH 5 0
BBX 5 8 0 0
BITMAP
10
00
50
00
40
00
50
00
ENDCHAR
STARTCHAR BRAILLE
ENCODING 10463
SWIDTH 625 0
DWIDTH 5 0
BBX 5 8 0 0
BITMAP
50
00
50
00
40
00
50
00
ENDCHAR
STARTCHAR BRAILLE
ENCODING 10464
SWIDTH 625 0
DWIDTH 5 0
BBX 5 8 0 0
BITMAP
00
00
00
00
10
00
50
00
ENDCHAR
STARTCHAR BRAILLE
ENCODING 10465
SWIDTH 625 0
DWIDTH 5 0
BBX 5 8 0 0
BITMAP
40
00
00
00
10
00
50
00
ENDCHAR
STARTCHAR BRAILLE
ENCODING 10466
SWIDTH 625 0
DWIDTH 5 0
BBX 5 8 0 0
BITMAP
00
00
40
00
10
00
50
00
ENDCHAR
STARTCHAR BRAILLE
ENCODING 10467
SWIDTH 625 0
DWIDTH 5 0
BBX 5 8 0 0
BITMAP
40
00
40
00
10
00
50
00
ENDCHAR
STARTCHAR BRAILLE
ENCODING 10468
SWIDTH 625 0
DWIDTH 5 0
BBX 5 8 0 0
BITMAP
00
00
00
00
50
00
50
00
ENDCHAR
STARTCHAR BRAILLE
ENCODING 10469
SWIDTH 625 0
DWIDTH 5 0
BBX 5 8 0 0
BITMAP
40
00
00
00
50
00
50
00
ENDCHAR
STARTCHAR BRAILLE
ENCODING 10470
SWIDTH 625 0
DWIDTH 5 0
BBX 5 8 0 0
BITMAP
00
00
40
00
50
00
50
00
ENDCHAR
STARTCHAR BRAILLE
ENCODING 10471
SWIDTH 625 0
DWIDTH 5 0
BBX 5 8 0 0
BITMAP
40
00
40
00
50
00
50
00
ENDCHAR
STARTCHAR BRAILLE
ENCODING 10472
SWIDTH 625 0
DWIDTH 5 0
BBX 5 8 0 0
BITMAP
10
00
00
00
10
00
50
00
ENDCHAR
STARTCHAR BRAILLE
ENCODING 10473
SWIDTH 625 0
DWIDTH 5 0
BBX 5 8 0 0
BITMAP
50
00
00
00
10
00
50
00
ENDCHAR
STARTCHAR BRAILLE
ENCODING 10474
SWIDTH 625 0
DWIDTH 5 0
BBX 5 8 0 0
BITMAP
10
00
40
00
10
00
50
00
ENDCHAR
STARTCHAR BRAILLE
ENCODING 10475
SWIDTH 625 0
DWIDTH 5 0
BBX 5 8 0 0
BITMAP
50
00
40
00
10
00
50
00
ENDCHAR
STARTCHAR BRAILLE
ENCODING 10476
SWIDTH 625 0
DWIDTH 5 0
BBX 5 8 0 0
BITMAP
10
00
00
00
50
00
50
00
ENDCHAR
STARTCHAR BRAILLE
ENCODING 10477
SWIDTH 625 0
DWIDTH 5 0
BBX 5 8 0 0
BITMAP
50
00
00
00
50
00
50
00
ENDCHAR
STARTCHAR BRAILLE
ENCODING 10478
SWIDTH 625 0
DWIDTH 5 0
BBX 5 8 0 0
BITMAP
10
00
40
00
50
00
50
00
ENDCHAR
STARTCHAR BRAILLE
ENCODING 10479
SWIDTH 625 0
DWIDTH 5 0
BBX 5 8 0 0
BITMAP
50
00
40
00
50
00
50
00
ENDCHAR
STARTCHAR BRAILLE
ENCODING 10480
SWIDTH 625 0
DWIDTH 5 0
BBX 5 8 0 0
BITMAP
00
00
10
00
10
00
50
00
ENDCHAR
STARTCHAR BRAILLE
ENCODING 10481
SWIDTH 625 0
DWIDTH 5 0
BBX 5 8 0 0
BITMAP
40
00
10
00
10
00
50
00
ENDCHAR
STARTCHAR BRAILLE
ENCODING 10482
SWIDTH 625 0
DWIDTH 5 0
BBX 5 8 0 0
BITMAP
00
00
50
00
10
00
50
00
ENDCHAR
STARTCHAR BRAILLE
ENCODING 10483
SWIDTH 625 0
DWIDTH 5 0
BBX 5 8 0 0
BITMAP
40
00
50
00
10
00
50
00
ENDCHAR
STARTCHAR BRAILLE
ENCODING 10484
SWIDTH 625 0
DWIDTH 5 0
BBX 5 8 0 0
BITMAP
00
00
10
00
50
00
50
00
ENDCHAR
STARTCHAR BRAILLE
ENCODING 10485
SWIDTH 625 0
DWIDTH 5 0
BBX 5 8 0 0
BITMAP
40
00
10
00
50
00
50
00
ENDCHAR
STARTCHAR BRAILLE
ENCODING 10486
SWIDTH 625 0
DWIDTH 5 0
BBX 5 8 0 0
BITMAP
00
00
50
00
50
00
50
00
ENDCHAR
STARTCHAR BRAILLE
ENCODING 10487
SWIDTH 625 0
DWIDTH 5 0
BBX 5 8 0 0
BITMAP
40
00
50
00
50
00
50
00
ENDCHAR
STARTCHAR BRAILLE
ENCODING 10488
SWIDTH 625 0
DWIDTH 5 0
BBX 5 8 0 0
BITMAP
10
00
10
00
10
00
50
00
ENDCHAR
STARTCHAR BRAILLE
ENCODING 10489
SWIDTH 625 0
DWIDTH 5 0
BBX 5 8 0 0
BITMAP
50
00
10
00
10
00
50
00
ENDCHAR
STARTCHAR BRAILLE
ENCODING 10490
SWIDTH 625 0
DWIDTH 5 0
BBX 5 8 0 0
BITMAP
10
00
50
00
10
00
50
00
ENDCHAR
STARTCHAR BRAILLE
ENCODING 10491
SWIDTH 625 0
DWIDTH 5 0
BBX 5 8 0 0
BITMAP
50
00
50
00
10
00
50
00
ENDCHAR
STARTCHAR BRAILLE
ENCODING 10492
SWIDTH 625 0
DWIDTH 5 0
BBX 5 8 0 0
BITMAP
10
00
10
00
50
00
50
00
ENDCHAR
STARTCHAR BRAILLE
ENCODING 10493
SWIDTH 625 0
DWIDTH 5 0
BBX 5 8 0 0
BITMAP
50
00
10
00
50
00
50
00
ENDCHAR
STARTCHAR BRAILLE
ENCODING 10494
SWIDTH 625 0
DWIDTH 5 0
BBX 5 8 0 0
BITMAP
10
00
50
00
50
00
50
00
ENDCHAR
STARTCHAR BRAILLE
ENCODING 10495
SWIDTH 625 0
DWIDTH 5 0
BBX 5 8 0 0
BITMAP
50
00
50
00
50
00
50
00
ENDCHAR
STARTCHAR char57506
ENCODING 57506
SWIDTH 625 0
DWIDTH 5 0
BBX 5 8 0 0
BITMAP
20
50
50
F8
D8
D8
F8
00
ENDCHAR
STARTCHAR char57520
ENCODING 57520
SWIDTH 625 0
DWIDTH 5 0
BBX 5 8 0 0
BITMAP
80
C0
E0
F0
F0
E0
C0
80
ENDCHAR
STARTCHAR char57521
ENCODING 57521
SWIDTH 625 0
DWIDTH 5 0
BBX 5 8 0 0
BITMAP
80
40
20
10
10
20
40
80
ENDCHAR
STARTCHAR char57522
ENCODING 57522
SWIDTH 625 0
DWIDTH 5 0
BBX 5 8 0 0
BITMAP
10
30
70
F0
F0
70
30
10
ENDCHAR
STARTCHAR char57523
ENCODING 57523
SWIDTH 625 0
DWIDTH 5 0
BBX 5 8 0 0
BITMAP
10
20
40
80
80
40
20
10
ENDCHAR
ENDFONT
